<?xml version="1.0" encoding="utf-8"?>
<!-- Generator: Adobe Illustrator 22.1.0, SVG Export Plug-In . SVG Version: 6.00 Build 0)  -->
<svg version="1.1" id="Layer_1" xmlns="http://www.w3.org/2000/svg" xmlns:xlink="http://www.w3.org/1999/xlink" x="0px" y="0px"
	 viewBox="0 0 300 400" style="enable-background:new 0 0 300 400;" xml:space="preserve">
<style type="text/css">.st0 { fill: #666; }</style>
<g>
	<path class="st0" d="M0.1,219.9c0-40.8,0-81.6,0-122.4c0-15.7,0.2-31.4,0-47.1C-0.1,29,13.6,9.4,34.5,2.6c4.7-1.5,9.7-2.4,14.6-2.4
		C116.2,0,183.4,0,250.6,0c22.1,0,42.3,15.9,47.8,37.3c1.8,7.1,1.6,14.4,1.6,21.6c0,21.5,0,43,0,64.5c0,42.9,0,85.8,0,128.8
		c0,28,0,56,0,84c0,19.2,0,38.5-0.1,57.7c0,1.9-0.9,4.4-2.3,5.4c-1.8,1.3-4.2,0.6-6.3-0.8c-28-18.7-56-37.4-84-56.1
		c-16-10.6-31.9-21.3-47.9-31.9c-6.3-4.2-12.6-4.1-18.9,0c-29.7,19.8-59.5,39.7-89.2,59.6c-14.1,9.4-28.2,18.7-42.2,28.1
		c-2.1,1.4-4.4,2.2-6.6,1.2c-2.3-1.1-2.4-3.6-2.4-6c0-27.7,0-55.5,0-83.2c0-22.6,0.1-45.2,0.1-67.8C0.1,234.9,0.1,227.4,0.1,219.9
		C0.1,219.9,0.1,219.9,0.1,219.9z M249.7,310.4c0-2.1,0-3.5,0-5c0-25.2,0-50.4,0-75.6c0-56,0-112,0-168c0-7.7-3.8-11.5-11.5-11.6
		c-19.4,0-38.8,0-58.1,0c-39.4,0-78.9-0.1-118.3-0.1c-7.5,0-11.5,4-11.5,11.5c0,82.1,0,164.3,0,246.4c0,0.5,0.1,1.1,0.2,1.9
		c0.8-0.4,1.4-0.7,1.9-1.1c18-12.1,36.2-24,54.1-36.3c11.9-8.1,24.3-14.6,39.1-15.3c14-0.6,27.1,2,38.8,9.6
		c15.9,10.2,31.5,20.9,47.3,31.5C237.5,302.2,243.3,306.1,249.7,310.4z"/>
	<path class="st0" d="M113.7,122.9c2.7,0,6.8,0,10.9,0c1.5,0,2.2-0.6,2.7-2c3.8-10.9,7.6-21.7,11.8-32.5c1.2-3.2,3.3-6.3,5.6-8.9
		c3.1-3.6,7.2-3.4,10.6,0c3.6,3.4,5.4,7.9,7,12.4c3.5,9.7,7,19.5,10.4,29.2c0.6,1.7,1.7,1.9,3.1,1.9c7.8,0.2,15.7,0.1,23.5,0.6
		c5.9,0.3,12,0.8,17.8,2c8.6,1.9,10.7,8,4.9,14.6c-3.4,3.9-7.9,6.9-12.1,10.2c-6.5,5.2-13.1,10.2-19.8,15.2c-1.6,1.2-2,2.5-1.4,4.3
		c2.7,8.8,5.5,17.7,7.9,26.6c1.3,4.9,2.4,10,2.7,15.1c0.4,7.1-4.3,10.7-11,8.1c-4.4-1.7-8.4-4.5-12.3-7.2
		c-8.2-5.5-16.3-11.1-24.3-16.8c-1.4-1-2.2-0.5-3.4,0.3c-10.3,7.1-20.6,14.4-31,21.3c-2.3,1.5-5.2,2.5-7.9,2.9
		c-4.7,0.7-8-1.9-8.3-6.6c-0.2-3.6,0-7.5,1-11c3-11,6.3-22,9.7-32.9c0.7-2.2-0.3-3.2-1.8-4.4c-9.5-7.2-19.1-14.4-28.4-21.8
		c-2.1-1.7-3.9-4-5.3-6.3c-2.4-4.3-1.1-8.5,3.6-10.4c3.4-1.4,7.3-2.1,11-2.5C97.8,123.8,105,123.5,113.7,122.9z"/>
</g>
</svg>
