<?xml version="1.0" encoding="utf-8"?>
<!-- Generator: Adobe Illustrator 22.1.0, SVG Export Plug-In . SVG Version: 6.00 Build 0)  -->
<svg version="1.1" id="Layer_1" xmlns="http://www.w3.org/2000/svg" xmlns:xlink="http://www.w3.org/1999/xlink" x="0px" y="0px"
	 viewBox="0 0 841.9 595.3" style="enable-background:new 0 0 841.9 595.3;" xml:space="preserve">
<style type="text/css">
	.st0{fill:#26A69A;}
</style>
<path class="st0" d="M638.7,437.9c-2.8-3.2-6.4-3.9-9.7-4.5l-0.2,0c-10.1-2-14.7-7.4-14.7-17.5c-0.1-13.8-0.1-27.3-0.1-41.5
	c0-4.6,0-9.2,0-13.9c0.7,0.2,1.4,0.5,2,0.8c6.1,2.3,12.4,4.6,19.4,1.8c2.4-1,4.2-3.1,4.7-5.7c0.5-2.6-0.3-5.2-2.1-7.1
	c-2.7-2.7-6-3.3-9.1-3.9l-0.2,0c-10.1-2-14.7-7.4-14.7-17.5c-0.1-12.4-0.1-24.5-0.1-37.3c0-4,0-8.1,0-12.2c0.7,0.2,1.4,0.5,2,0.7
	c6.1,2.3,12.4,4.7,19.4,1.9c2.5-1,4.2-3.1,4.8-5.8c0.5-2.6-0.3-5.3-2.1-7.1c-2.7-2.6-5.9-3.3-9-3.9l-0.3-0.1
	c-10.2-2-14.6-7.3-14.7-17.7c-0.1-10.2-0.1-20.5,0-30.6l0-1c0.1-15.4-6.8-26.8-19.8-33c-3.2-1.5-3.6-3-4-6.7
	c-2.2-22-12.6-41.1-29.3-53.8c-16.7-12.7-37.9-17.6-59.7-13.8c-4.8,0.8-7.7,0.6-11.5-2.9c-18.7-17.2-42.6-26.8-67.1-27
	c-0.3,0-0.5,0-0.8,0c-24.3,0-48,9.2-67.1,25.9c-4.7,4.1-8.2,5.1-13.9,4.1c-21.5-4-42.6,0.8-59.3,13.4c-17,12.8-27.5,32-29.6,54.1
	c-0.4,3.9-1.4,5.4-4.9,7.2c-12.2,6.1-18.7,17-18.8,31.5c-0.1,5.9,0,11.9,0,17.8c0,4.3,0,8.6,0,12.9c0,12.6-3.9,17.4-15.7,19.8
	c-2.6,0.5-5.6,1.4-8.1,3.7c-2,1.8-2.9,4.5-2.4,7.1c0.5,2.7,2.2,4.8,4.7,5.8c7.1,2.9,13.4,0.5,19.6-1.8c0.7-0.2,1.3-0.5,2-0.7
	c0,4.3,0,8.6,0.1,12.8c0.1,13.6,0.1,26.4-0.2,39.5c-0.2,7.6-4.8,12.5-13.7,14.5c-0.6,0.1-1.1,0.2-1.7,0.3c-3.4,0.6-7.6,1.4-10.2,5.9
	l-0.2,0.4c-1.3,3.2-1,7.4,2.3,9.2c8.4,4.5,16.1,1.4,23.6-1.6c0,0,0,0,0.1,0v42.8c0,11.8,0,17.8-2.4,21.4c-2.4,3.6-7.8,5.9-18.6,10.5
	c-1.1,0.5-1.9,1.2-2.6,1.9c-1.4,1.4-2.1,3.3-2.1,5.3v1.8c0,2.7,1.9,5.2,4.5,5.9c8.4,2.3,17.6,0.6,25.2-4.9
	c8.2-5.8,13.2-14.9,13.8-24.8c0.3-4.5,0.2-9,0.1-13.7c0-0.8,0-1.7,0-2.6c1.1,0.4,2.2,0.8,3.2,1.2c3.6,1.4,7.3,2.8,11.6,2.7
	c2.8-0.1,10.2-0.3,10.6-8.3c0.4-7.2-6.2-8.8-8.4-9.4c-14.7-3.8-17.1-6.8-17.2-21.7c0-11.3,0-22.6,0-34.1l0-11.6
	c1,0.4,2.1,0.8,3.1,1.2c3.7,1.4,7.5,2.9,11.9,2.8c2.8-0.1,9.2-0.3,10.4-7.1c0.9-5.4-1.9-9-8.4-10.6c-14.6-3.7-17-6.7-17-21.8l0-15.4
	c0-17.7,0-35.9,0-53.9c0-7.6,2.2-20.5,16.6-20.5c0,0,0,0,0,0c10.5,0,16.9,7.6,17.1,20.2c0.1,10.1,0.1,20.1,0,29.6
	c-0.1,10.4-4.5,15.8-14.7,17.8l-0.9,0.2c-3.9,0.8-11.2,2.2-9.8,10.5c0.5,2.7,1.6,4.8,3.5,6c3.2,2.3,7.4,1.5,10.7,0.9l0.5-0.1
	c3.3-0.6,6.4-1.7,9.7-2.9c0.3-0.1,0.6-0.2,0.8-0.3c0,4.4,0.1,8.8,0.1,13.1c0.1,14.1,0.3,27.4-0.4,40.9c-0.5,9.6-10.1,12.2-14.2,12.9
	l-0.1,0c-3.4,0.5-7.2,1.2-9.3,4.1c-1.2,1.7-1.7,3.9-1.2,6.6c0.4,2.6,1.6,4.6,3.4,5.9c3.3,2.3,7.9,1.4,10.4,1
	c3.4-0.7,6.8-1.8,10.3-2.9c0.4-0.1,0.8-0.3,1.2-0.4c0,4.9,0,9.8,0.1,14.5c0.1,14.6,0.2,29.8-0.3,44.5c-0.4,9.9-9.2,12.9-14.5,13.8
	c-3.4,0.6-7.3,1.2-9.4,4.2c-1.2,1.8-1.6,4-1.1,6.6c1.4,8,8.6,7.3,12.4,7c0.4,0,0.8-0.1,1.2-0.1c5.1-0.4,9.2-3.2,12.9-5.7
	c2.8-1.9,5.5-3.7,7.8-3.8c2.2-0.1,4.9,1.8,7.7,3.8c3.6,2.5,7.7,5.3,12.7,5.7c0.5,0,0.9,0.1,1.4,0.1c3.8,0.4,10.7,1.1,12.3-6.7
	c0.6-2.8,0.2-5.1-1-6.8c-2-2.9-5.5-3.6-8.6-4.1c-0.5-0.1-1-0.2-1.5-0.3c-6.2-1.3-13.7-4.8-13.9-14.4c-0.4-14.6-0.3-29.6-0.2-44
	c0-4.8,0.1-9.7,0.1-14.5c1.1,0.4,2.2,0.8,3.2,1.2c3.6,1.4,7.3,2.8,11.6,2.7c2.8-0.1,10.2-0.3,10.6-8.3c0.4-7.1-6.2-8.8-8.4-9.4
	c-14.7-3.8-17.1-6.8-17.1-21.7c0-11.4,0-22.8,0-34.4l0-11.3c1,0.4,2,0.8,3,1.1c3.7,1.4,7.6,2.9,12,2.8c2.8-0.1,9.3-0.3,10.4-7.1
	c0.9-5.4-1.9-9-8.4-10.6c-14.6-3.6-17-6.7-17-21.8c0-3.1,0-6.3,0-9.4c0-6.3,0.1-12.9-0.1-19.4c-0.3-16.1-9-28.4-23.8-33.6
	c-3.7-1.3-4.2-1.9-4-5.1c1.4-22.7,21-44.5,44.6-49.8c22.7-5,45.8,3.8,57.9,21.6c-2.2,0-4.2,0-6.3,0c-19.4,0.3-34,14.5-34.7,33.9
	c-0.1,3.4-0.1,6.9-0.1,10.3c0,2.5,0,5.1,0,7.6c-0.2,10.4-4.6,15.7-14.7,17.8l-0.9,0.2c-3.9,0.8-11.1,2.2-9.8,10.5
	c1.2,8.1,8.4,7.5,12.2,7.2c0.4,0,0.8-0.1,1.2-0.1c3.9-0.3,7.3-1.7,10.9-3.3c0.3-0.1,0.6-0.3,0.9-0.4c0,5.3,0.1,10.6,0.1,15.8
	c0.1,16.7,0.2,32.4-0.4,48.4c-0.4,9.6-10.1,12.2-14.3,12.9c-3.4,0.6-7.3,1.2-9.4,4.2c-1.2,1.7-1.7,4-1.2,6.6
	c0.4,2.6,1.6,4.6,3.4,5.9c3.1,2.1,7,1.6,10.4,0.9c3.5-0.7,6.8-1.8,10.3-2.9c0.4-0.1,0.8-0.2,1.1-0.4c0,4.4,0.1,8.7,0.1,13
	c0.1,13.2,0.2,26.9-0.3,40.2c-0.4,9.9-9.3,12.9-14.5,13.7c-3.2,0.5-7.2,1.2-9.4,4.2c-1.2,1.8-1.6,4-1.1,6.7c0.5,2.6,1.7,4.5,3.5,5.8
	c3.3,2.3,7.8,1.4,10.4,0.9c3.5-0.7,6.8-1.8,10.3-3c0.4-0.1,0.7-0.2,1.1-0.4c0,0.7,0,1.4,0,2.1c0,4.4-0.1,8.6,0.1,12.9
	c0.6,17.3,15.3,32,32.1,32.2c2.8,0,10.3,0.1,11.1-7.7c0.8-7.9-6.6-9.5-9-10.1c-13.2-2.9-16.5-6.9-16.5-20.1c0-17.7,0-35.6,0.1-53
	c1.2,0.4,2.3,0.9,3.5,1.4c3,1.3,6.2,2.6,9.9,2.6c0,0,0,0,0,0l0.3,0c4,0,10.8,0,11.6-7.9c0.7-7.6-6.2-9.2-9.2-9.8
	c-12.9-2.9-16.3-7-16.3-20.4c0-11.7,0-23.3,0-35.1l0-11.8c1.2,0.4,2.3,0.8,3.5,1.3c3.5,1.4,7.1,2.8,11.3,2.6
	c3-0.1,10.2-0.3,10.7-8.1c0.5-7.2-6.1-9-8.2-9.5c-15.2-4-17.3-6.7-17.3-22.6c0-5.3,0-10.6,0-15.9c0-13.6,0-27.7,0-41.5
	c0.1-12.3,6.7-19.6,17.6-19.7c5,0,9.4,1.6,12.5,4.8c3.5,3.5,5.4,8.6,5.4,14.7c0,38.4,0,76.8,0,115.2c0,62.8,0,127.8,0.1,191.7
	c0,2.9-0.5,3.8-0.7,4.1c-0.3,0.3-1.3,0.7-4,0.6c-12.6-0.4-25.5-0.3-37.9-0.2l-5.7,0c-5.5,0-9.4,0.6-11.4,3.4
	c-2.1,2.9-1.4,6.7,0.4,12.3l0.7,2h188.3l0.7-2c1.8-5.6,2.5-9.4,0.4-12.3c-2-2.8-5.9-3.4-11.4-3.5c-2.8,0-5.5-0.1-8.3-0.1
	c-10.3-0.1-21-0.3-31.5,0.2c-3,0.1-4.8-0.1-5.6-0.9c-0.8-0.8-1.2-2.7-1.2-5.8c0.3-51.5,0.2-103.9,0.2-154.5c0-15.5,0-30.9,0-46.4
	l0-29.5c0-24.2,0-48.3,0-72.5c0-7.4,2-13.3,5.7-17c3-3,7.1-4.5,12.2-4.5c0,0,0.1,0,0.1,0c14.5,0.1,17.6,11.8,17.6,21.7
	c0,19.4,0.1,39.4,0,59.4c0,11-4.3,16.2-15.1,18.4c-2.5,0.5-5.1,1-7.2,2.5c-1.9,1.3-3.9,3.9-2.9,8.7c1.5,7.2,8,6.9,11.6,6.7
	c0.4,0,0.7,0,1.1-0.1c3.8-0.1,7.1-1.5,10.3-2.9c0.8-0.3,1.5-0.6,2.3-0.9c0,4.4,0,8.7,0.1,13.1c0.1,13.7,0.2,26.6-0.3,39.7
	c-0.4,10-8.3,13.4-14.9,14.4c-3.6,0.6-11.2,1.8-10.3,10c0.3,2.8,1.4,5,3.3,6.4c3,2.2,7,1.8,10.1,1.2c3.7-0.7,7.2-1.8,10.9-3
	c0.4-0.1,0.8-0.2,1.2-0.4c0,4.7,0,9.4,0,14.1c0,14.3,0.1,29-0.1,43.5c-0.1,7.9-5.3,13.4-14.3,15l-0.8,0.1c-4.2,0.7-11.3,2-10.2,10.1
	c0.3,2.7,1.4,4.8,3.2,6.1c3,2.3,7.1,1.8,10.3,1.4l0.8-0.1c15.8-2,28.2-15.7,28.8-31.8c0.2-4.3,0.1-8.5,0.1-12.9c0-0.7,0-1.4,0-2.2
	c1,0.4,2,0.8,3,1.1c3.7,1.4,7.5,2.9,11.9,2.8c2.8-0.1,9.2-0.3,10.4-7.1c0.9-5.4-1.9-9-8.3-10.6c-14.6-3.7-17-6.7-17-21.8
	c0-11.4,0-22.8,0-34.4l0-11.1c1,0.3,1.9,0.7,2.8,1.1c3.8,1.5,7.8,3,12.3,2.9c2.5-0.1,9.3-0.3,10.3-7.3c1.2-8.1-6.1-9.9-8.5-10.5
	c-14.4-3.5-16.9-6.8-16.9-21.9c0-13.6,0-27.3,0-41.2l0-14.2c1.3,0.4,2.5,0.9,3.8,1.4c3.2,1.2,6.6,2.5,10.4,2.5
	c3.8-0.1,10.2-0.2,11.3-7.3c1.2-8-6.2-9.8-8.6-10.4c-13.9-3.3-16.8-6.9-16.8-21c0-0.3,0-0.7,0-1c0-0.6,0-1.2,0-1.6
	c1.7-15.3-1.6-27.7-9.7-35.8c-7.3-7.4-17.9-10.9-31.7-10.5c9.8-13.6,23.1-21.1,40.5-22.9c29.5-3,57.3,18.7,62,48.4
	c0.8,5.1,0.3,6.7-4.5,8.3c-14,4.6-22.2,16-22.9,32.1c-0.3,7.1-0.3,14.2-0.2,21.2c0,3.8,0.1,7.8,0.1,11.6
	c-0.1,11.2-4.3,16.4-14.9,18.6l-0.5,0.1c-4,0.8-11.5,2.3-9.9,10.8c0.5,2.6,1.7,4.5,3.5,5.8c3.3,2.3,7.8,1.4,10.4,0.9
	c3.5-0.7,6.8-1.8,10.3-3c0.3-0.1,0.7-0.2,1-0.3c0,4.4,0.1,8.8,0.1,13c0.1,13.9,0.2,26.9-0.3,40.3c-0.4,9.9-9.3,12.8-14.6,13.7
	c-3,0.5-7.2,1.1-9.3,4.3c-1.2,1.8-1.6,4.1-1.1,6.8c1.8,8.9,10.3,7.2,14,6.5c3.5-0.7,6.8-1.8,10.3-3c0.3-0.1,0.7-0.2,1-0.3
	c0,4.8,0,9.7,0.1,14.5c0.1,15.1,0.2,29.4-0.3,43.9c-0.3,10-8.2,13.4-14.8,14.5c-3.7,0.6-7.2,1.4-9.2,4.3c-1.3,1.8-1.6,4.1-1.1,6.9
	c1.5,7.7,8.7,7,12.5,6.6l0.3,0c7.6-0.7,13.9-3.5,18.7-8.3c2.2-2.2,3-2.2,5.6,0.2c5.9,5.5,13.3,8.2,21.9,8.3c0,0,0.1,0,0.1,0
	c5.2,0,8.7-2.6,9.4-7.1c0.6-3.5-0.2-8.1-7.3-10.4c-17.6-5.5-18.1-6.2-18.1-24v-49.3c0.4,0.1,0.9,0.3,1.3,0.4c3.8,1.1,7.4,2.2,11.2,3
	c4.1,0.8,7.2,0.5,9.5-1.1c1.8-1.3,3-3.3,3.4-5.9c1.3-8.3-6.1-9.8-9.6-10.6c-12.1-2.5-15.7-7.1-15.8-19.8c0-11.7,0-23.4,0-35.3
	l0-12.1c1.2,0.4,2.5,0.9,3.7,1.4c3.3,1.3,6.6,2.6,10.5,2.5c3.6-0.1,10.2-0.2,11.2-7.4c1.1-8-6.3-9.7-8.7-10.3
	c-13.9-3.3-16.7-6.8-16.7-21c0-2.7,0-5.3,0-8c0-6.8-0.1-13.8,0.1-20.6c0.3-11.1,7-18.3,17-18.3c0,0,0,0,0,0
	c10.1,0,16.4,7.1,16.5,18.5c0.2,21.6,0.2,44.8,0,75.2c0,10.2-4.5,15.5-14.9,17.6l-0.5,0.1c-4,0.8-11.5,2.3-9.9,10.8
	c0.5,2.6,1.7,4.5,3.5,5.8c3.3,2.2,7.8,1.4,10.4,0.9c3.5-0.7,6.8-1.8,10.3-3c0.3-0.1,0.7-0.2,1-0.3c0,4.4,0.1,8.8,0.1,13
	c0.1,13.9,0.2,26.9-0.3,40.3c-0.4,9.9-9.3,12.8-14.6,13.6c-3,0.5-7.1,1.1-9.3,4.3c-1.2,1.8-1.6,4.1-1,6.8c1.8,8.8,10.3,7.2,14,6.5
	c3.5-0.7,6.8-1.8,10.3-3c0.3-0.1,0.7-0.2,1-0.3c0,0.8,0,1.6,0,2.4c-0.1,4.7-0.1,9.2,0.1,13.7c0.6,9.9,5.6,18.9,13.6,24.7
	c7.5,5.4,16.6,7.3,25,5c2.5-0.7,4.4-2.5,5.2-5C640.9,442.4,640.4,439.8,638.7,437.9z M439.8,189.4c0.2,50.7,0.2,102.2,0.2,152.1
	c0,48.4,0,98.4,0.2,147.6c0,4-0.4,6.2-1.4,7.1c-0.9,0.8-2.9,1-6.1,0.6l-22.6-0.2l-0.2,0c-3.1,0.4-5.2,0.2-6.1-0.6
	c-1-0.9-1.4-3.1-1.4-7.1c0.3-98.6,0.2-292.3,0.2-294.9c0.3-35.2-11.1-59.4-35.7-75.9c13-12.9,31.8-20.7,52.3-21.5
	c21.7-0.8,42,6.3,55.9,19.5c0.8,0.7,1.1,1.2,1.3,1.4c-0.2,0.2-0.7,0.6-1.5,1.1C451.2,134.4,439.7,157.5,439.8,189.4z"/>
</svg>
